<svg width="124" height="124" viewBox="0 0 124 124" fill="none" xmlns="http://www.w3.org/2000/svg">
<g id="res 1" clip-path="url(#clip0_2204_32057)">
<g id="Group">
<path id="Vector" d="M70.1228 18.3166C69.9531 18.5407 69.7338 18.7225 69.4821 18.8477C69.2305 18.9729 68.9532 19.0382 68.6721 19.0384H55.3276C54.756 19.0384 54.2208 18.7695 53.8769 18.3166C53.7075 18.0921 53.5924 17.8313 53.5408 17.5548C53.4891 17.2783 53.5022 16.9936 53.579 16.723L56.0033 8.21984C56.1113 7.8401 56.3402 7.50597 56.6554 7.26818C56.9705 7.0304 57.3547 6.90195 57.7495 6.90234H66.2502C67.0616 6.90234 67.776 7.44 67.9964 8.21984L70.4207 16.723C70.5757 17.2728 70.4667 17.8613 70.1228 18.3166Z" fill="#6F889C"/>
<path id="Vector_2" d="M70.1231 18.3166C69.9533 18.5407 69.7341 18.7225 69.4824 18.8477C69.2307 18.9729 68.9535 19.0382 68.6724 19.0384H64.2621C64.652 19.0384 65.042 18.9342 65.3592 18.7066C66.0083 18.2464 66.2674 17.4472 66.0616 16.723L63.6373 8.21984C63.5293 7.8401 63.3004 7.50597 62.9852 7.26818C62.67 7.0304 62.2859 6.90195 61.8911 6.90234H66.2505C67.0618 6.90234 67.7763 7.44 67.9967 8.21984L70.421 16.723C70.576 17.2728 70.467 17.8613 70.1231 18.3166Z" fill="#46708C"/>
<g id="Group_2">
<path id="Vector_3" d="M52.9373 20.7825V35.6625C52.9373 36.3358 52.39 36.8832 51.7143 36.8832H1.22273C0.951705 36.8837 0.688208 36.794 0.473778 36.6283C0.259349 36.4625 0.106183 36.2301 0.0384268 35.9677C-0.0996208 35.4252 0.142568 34.8609 0.63179 34.5897L3.75845 32.8653C5.15346 32.0951 6.56784 31.3564 7.99675 30.6492C21.5569 23.9479 36.5557 20.1261 51.6683 19.5594C52.0025 19.5473 52.3246 19.6708 52.5619 19.9009C52.8017 20.131 52.9373 20.4507 52.9373 20.7825ZM123.962 36.1687C123.894 36.4314 123.741 36.6641 123.527 36.8303C123.312 36.9964 123.049 37.0866 122.777 37.0866H72.2858C71.6101 37.0866 71.0627 36.5393 71.0627 35.8636V20.9859C71.0627 20.6517 71.1984 20.3344 71.4381 20.1043C71.6755 19.8743 71.9976 19.7507 72.3318 19.7628C87.1078 20.315 101.775 23.9794 115.093 30.4095C116.834 31.2474 118.551 32.1363 120.242 33.0687L123.368 34.7931C123.606 34.9242 123.793 35.1304 123.9 35.3794C124.008 35.6284 124.029 35.9061 123.962 36.1687Z" fill="#D7F1FF"/>
</g>
<path id="Vector_4" d="M52.5618 19.9009C52.8015 20.131 52.9372 20.4507 52.9372 20.7825V25.9944C33.6371 26.4206 17.2264 28.1886 7.99658 30.6492C21.5567 23.9479 36.5555 20.1261 51.6681 19.5594C52.0023 19.5473 52.3244 19.6708 52.5618 19.9009ZM72.3316 19.7628C87.1076 20.315 101.775 23.9794 115.093 30.4095C105.71 28.0723 89.7378 26.4061 71.0626 25.9919V20.9859C71.0626 20.6517 71.1982 20.3344 71.438 20.1043C71.6753 19.8743 71.9974 19.7507 72.3316 19.7628Z" fill="#B2E2F7"/>
<path id="Vector_5" d="M55.9326 37.8086H68.0672V97.1178H55.9326V37.8086Z" fill="#6F889C"/>
<path id="Vector_6" d="M63.9263 37.8086H68.067V97.1178H63.9263V37.8086Z" fill="#46708C"/>
<path id="Vector_7" d="M71.5784 95.3008V112.402C71.5784 114.995 69.4762 117.098 66.8824 117.098H57.1174C54.5236 117.098 52.4214 114.995 52.4214 112.402V95.3008C52.4214 94.2981 53.2327 93.4844 54.2378 93.4844H69.762C70.7671 93.4844 71.5784 94.2981 71.5784 95.3008Z" fill="#F9F05A"/>
<path id="Vector_8" d="M71.5783 95.3008V112.402C71.5783 114.995 69.4762 117.098 66.8823 117.098H62.0386C64.6324 117.098 66.7346 114.995 66.7346 112.402V95.3008C66.7346 94.2981 65.9233 93.4844 64.9182 93.4844H69.7619C70.767 93.4844 71.5783 94.2981 71.5783 95.3008Z" fill="#FFC047"/>
<path id="Vector_9" d="M74.0003 17.2227V37.2177C74.0003 39.5499 72.1112 41.4414 69.779 41.4414H54.3855C51.9612 41.4414 49.9995 39.4773 49.9995 37.0554V17.2227C49.9995 16.22 50.8108 15.4062 51.8159 15.4062H72.1839C73.189 15.4062 74.0003 16.22 74.0003 17.2227Z" fill="#F9F05A"/>
<path id="Vector_10" d="M74.0006 17.2227V37.2177C74.0006 39.5499 72.1116 41.4414 69.7793 41.4414H64.9355C67.2678 41.4414 69.1569 39.5499 69.1569 37.2177V17.2227C69.1569 16.22 68.3456 15.4062 67.3405 15.4062H72.1842C73.1893 15.4062 74.0006 16.22 74.0006 17.2227Z" fill="#FFC047"/>
<path id="Vector_11" d="M71.5784 95.3008V102.13H52.4214V95.3008C52.4214 94.2981 53.2327 93.4844 54.2378 93.4844H69.762C70.7671 93.4844 71.5784 94.2981 71.5784 95.3008Z" fill="#FF9648"/>
<path id="Vector_12" d="M71.5786 95.3008V102.13H66.7349V95.3008C66.7349 94.2981 65.9235 93.4844 64.9185 93.4844H69.7622C70.7673 93.4844 71.5786 94.2981 71.5786 95.3008Z" fill="#FF644A"/>
</g>
</g>
<defs>
<clipPath id="clip0_2204_32057">
<rect width="124" height="124" fill="white"/>
</clipPath>
</defs>
</svg>
