<svg width="124" height="124" viewBox="0 0 124 124" fill="none" xmlns="http://www.w3.org/2000/svg">
<g id="crown 2">
<g id="Group">
<path id="Vector" d="M39.9999 63.9924L62 23.9922L84.0001 63.9924L92.7578 94.3244L19.0769 91.9924L7.99994 43.9923L39.9999 63.9924Z" fill="#FFCC49"/>
<path id="Vector_2" d="M116 43.9922L104 95.9923H20L19.0768 91.9923H85.1288L84 81.0847V63.9923L116 43.9922Z" fill="#FEB237"/>
<path id="Vector_3" d="M108 43.9921C108 45.4341 108.381 46.787 109.049 47.9553C110.427 50.3668 113.023 51.2955 116 51.2955C120.418 51.2955 123.031 48.4104 123.031 43.9921C123.031 41.0125 122.371 38.4136 119.955 37.0368C118.75 36.3501 117.387 35.99 116 35.9922C111.582 35.9922 108 39.5739 108 43.9921Z" fill="#FFE177"/>
<path id="Vector_4" d="M113 48.9905C117.418 48.9905 121 45.4088 121 40.9906C121.001 39.6038 120.641 38.2407 119.955 37.0352C122.375 38.411 124 41.008 124 43.9905C124 48.4088 120.418 51.9905 116 51.9905C113.018 51.9905 110.42 50.3661 109.044 47.9462C110.25 48.6316 111.613 48.9915 113 48.9905Z" fill="#FFCC49"/>
<path id="Vector_5" d="M34 95.9923C34.5304 95.9923 35.0391 95.7815 35.4142 95.4065C35.7892 95.0314 36 94.5227 36 93.9923V83.9924H39.9999V93.9923C39.9999 94.5227 40.2106 95.0314 40.5857 95.4065C40.9608 95.7815 41.4695 95.9923 41.9999 95.9923H50.343C51.4038 95.9923 52.4215 95.5709 53.1715 94.8206L58.8286 89.1633C59.5786 88.4132 60 87.3958 60 86.335V73.9922H64V86.3358C64 87.3965 64.4214 88.4142 65.1717 89.1643L70.8285 94.8208C71.5786 95.5709 72.5959 95.9922 73.6567 95.9923H81.9998C82.5303 95.9923 83.039 95.7815 83.414 95.4065C83.7891 95.0314 83.9998 94.5227 83.9998 93.9923V83.9924H87.9998V93.9923C87.9998 94.5227 88.2105 95.0314 88.5856 95.4065C88.9606 95.7815 89.4694 95.9923 89.9998 95.9923H95.9997L99.418 105.465L23.25 105.828L20.0001 103.992V95.9923H34Z" fill="#FFE177"/>
<g id="Group_2">
<path id="Vector_6" d="M62 75.9921C59.7909 75.9921 58.0001 74.2013 58.0001 71.9922C58.0001 69.783 59.7909 67.9922 62 67.9922C64.2092 67.9922 66 69.783 66 71.9922C66 74.2013 64.2092 75.9921 62 75.9921Z" fill="#FF535D"/>
<path id="Vector_7" d="M86 85.9921C83.7909 85.9921 82.0001 84.2013 82.0001 81.9922C82.0001 79.783 83.7909 77.9922 86 77.9922C88.2092 77.9922 90 79.783 90 81.9922C90 84.2013 88.2092 85.9921 86 85.9921Z" fill="#FF535D"/>
<path id="Vector_8" d="M38 85.9921C35.7909 85.9921 34.0001 84.2013 34.0001 81.9922C34.0001 79.783 35.7909 77.9922 38 77.9922C40.2092 77.9922 42 79.783 42 81.9922C42 84.2013 40.2092 85.9921 38 85.9921Z" fill="#FF535D"/>
</g>
<path id="Vector_9" d="M96.0001 99.9922V95.9922H104V105.992C104 106.523 103.789 107.031 103.414 107.406C103.039 107.781 102.53 107.992 102 107.992H21.9999C21.4695 107.992 20.9608 107.781 20.5857 107.406C20.2106 107.031 19.9999 106.523 19.9999 105.992V103.992H91.9999C94.2093 103.992 96.0001 102.201 96.0001 99.9922Z" fill="#FFCC49"/>
<path id="Vector_10" d="M54.0001 24.0117C54.0001 25.4537 54.3816 26.8065 55.049 27.9748C56.4268 30.3863 59.0236 31.3151 62.0001 31.3151C66.4183 31.3151 69.0312 28.4299 69.0312 24.0117C69.0312 21.032 68.371 18.4331 65.9555 17.0563C64.7505 16.3696 63.387 16.0095 62.0001 16.0117C57.5818 16.0117 54.0001 19.5934 54.0001 24.0117Z" fill="#FFE177"/>
<path id="Vector_11" d="M59.0001 29.01C63.4183 29.01 67 25.4283 67 21.0101C67.0007 19.6234 66.6408 18.2603 65.9555 17.0547C68.3752 18.4303 70 21.0275 70 24.0101C70 28.4283 66.4183 32.01 62.0001 32.01C59.0175 32.01 56.4198 30.3857 55.0442 27.9657C56.2499 28.6511 57.6132 29.011 59.0001 29.01Z" fill="#FFCC49"/>
<path id="Vector_12" d="M0.000125885 43.9921C0.000125885 45.4341 0.38157 46.787 1.04904 47.9553C2.42684 50.3668 5.02358 51.2955 8.00007 51.2955C12.4183 51.2955 15.0312 48.4104 15.0312 43.9921C15.0312 41.0125 14.3711 38.4136 11.9555 37.0368C10.7505 36.3501 9.387 35.99 8.00007 35.9922C3.58184 35.9922 0.000125885 39.5739 0.000125885 43.9921Z" fill="#FFE177"/>
<path id="Vector_13" d="M5.00008 48.9905C9.41831 48.9905 13 45.4088 13 40.9906C13.0007 39.6038 12.6408 38.2407 11.9555 37.0352C14.3752 38.4108 16 41.008 16 43.9905C16 48.4088 12.4183 51.9905 8.00007 51.9905C5.01753 51.9905 2.41982 50.3661 1.0442 47.9462C2.24992 48.6315 3.61319 48.9914 5.00008 48.9905Z" fill="#FFCC49"/>
</g>
</g>
</svg>
